<svg width="20" height="17" viewBox="0 0 20 17" fill="none" xmlns="http://www.w3.org/2000/svg">
<path d="M20 1.42857C20 2.15385 19.4066 2.74725 18.6813 2.74725H6.57143C5.84615 2.74725 5.25275 2.15385 5.25275 1.42857C5.25275 0.703297 5.84615 0.10989 6.57143 0.10989H18.6813C19.4066 0.10989 20 0.703297 20 1.42857ZM6.57143 9.56044H13.4506C14.1758 9.56044 14.7692 8.96703 14.7692 8.24176C14.7692 7.51648 14.1758 6.92308 13.4506 6.92308H6.57143C5.84615 6.92308 5.25275 7.51648 5.25275 8.24176C5.25275 8.96703 5.84615 9.56044 6.57143 9.56044ZM16.2857 13.7363H6.57143C5.84615 13.7363 5.25275 14.3297 5.25275 15.0549C5.25275 15.7802 5.84615 16.3736 6.57143 16.3736H16.2857C17.011 16.3736 17.6044 15.7802 17.6044 15.0549C17.6044 14.3297 17.033 13.7363 16.2857 13.7363ZM1.45055 0C1.07692 0 0.703297 0.153846 0.43956 0.417582C0.175824 0.681319 0 1.05495 0 1.42857C0 1.8022 0.153846 2.17582 0.417582 2.43956C0.681319 2.7033 1.05495 2.85714 1.42857 2.85714C1.8022 2.85714 2.17582 2.7033 2.43956 2.43956C2.7033 2.17582 2.85714 1.8022 2.85714 1.42857C2.85714 1.05495 2.7033 0.681319 2.43956 0.417582C2.1978 0.153846 1.82418 0 1.45055 0ZM1.45055 6.81319C1.07692 6.81319 0.703297 6.96703 0.43956 7.23077C0.175824 7.49451 0 7.86813 0 8.24176C0 8.61539 0.153846 8.98901 0.417582 9.25275C0.681319 9.51648 1.05495 9.67033 1.42857 9.67033C1.8022 9.67033 2.17582 9.51648 2.43956 9.25275C2.7033 8.98901 2.85714 8.61539 2.85714 8.24176C2.85714 7.86813 2.7033 7.49451 2.43956 7.23077C2.1978 6.96703 1.82418 6.81319 1.45055 6.81319ZM1.45055 13.6264C1.07692 13.6264 0.703297 13.7802 0.43956 14.044C0.175824 14.3077 0 14.6813 0 15.0549C0 15.4286 0.153846 15.8022 0.417582 16.0659C0.681319 16.3297 1.05495 16.4835 1.42857 16.4835C1.8022 16.4835 2.17582 16.3297 2.43956 16.0659C2.7033 15.8022 2.85714 15.4286 2.85714 15.0549C2.85714 14.6813 2.7033 14.3077 2.43956 14.044C2.1978 13.7802 1.82418 13.6264 1.45055 13.6264Z" fill="url(#paint0_linear_326_1044)"/>
<defs>
<linearGradient id="paint0_linear_326_1044" x1="10" y1="0" x2="10" y2="16.92" gradientUnits="userSpaceOnUse">
<stop stop-color="#FFD542"/>
<stop offset="1" stop-color="#FFCC1B"/>
</linearGradient>
</defs>
</svg>
