<svg width="30" height="30" viewBox="0 0 30 30" fill="none" xmlns="http://www.w3.org/2000/svg">
<path d="M29.998 14.9993C29.998 12.1108 29.8515 9.49771 29.4179 7.9861C28.9082 6.21668 28.3516 4.59961 26.799 3.17001C24.9475 1.47091 23.266 0.89673 20.8287 0.422152C19.0182 0.0706133 16.909 -0.0055534 15.5907 0.00030558C15.1982 0.00030558 14.8056 0.00030558 14.4131 0.00030558C13.0948 -0.0055534 10.9856 0.0706133 9.17516 0.422152C6.73783 0.89673 5.0563 1.47091 3.20486 3.17587C1.65223 4.60546 1.09563 6.22254 0.585898 7.99195C0.146475 9.50357 0 12.1167 0 14.9993V15.0052V15.011C0 17.8936 0.146474 20.5067 0.580039 22.0184C1.08977 23.7878 1.64637 25.4048 3.199 26.8344C5.05044 28.5394 6.73197 29.1136 9.1693 29.5882C11.2757 29.9977 13.7794 30.0333 14.9766 29.9984C14.9798 29.9983 14.9827 29.9996 14.9849 30.0018C14.9895 30.0063 14.9968 30.0063 15.0013 30.0018C15.0036 29.9996 15.0065 29.9983 15.0097 29.9984C16.2127 30.0333 18.7164 29.9919 20.817 29.5882C23.2543 29.1136 24.9358 28.5394 26.7873 26.8344C28.3399 25.4048 28.8965 23.7878 29.4062 22.0184C29.8515 20.5067 29.998 17.8878 29.998 14.9993Z" fill="url(#paint0_linear_86_1215)"/>
<path d="M17.8838 9.00071H8.73381C7.7554 8.96249 7.7554 10.4838 8.73381 10.4456H17.8473C18.8079 10.4838 18.8453 9.00071 17.8846 9.00071H17.8838ZM8.73381 14.7784C7.79275 14.7784 7.79275 16.2223 8.73381 16.2223H13.8927C14.8533 16.2223 14.8533 14.7784 13.8927 14.7784H8.73381ZM8.73381 20.556C7.79275 20.556 7.79275 22 8.73381 22H20.2942C21.2353 22 21.2353 20.556 20.2942 20.556H8.73381Z" fill="#181F30"/>
<defs>
<linearGradient id="paint0_linear_86_1215" x1="14.999" y1="0" x2="14.999" y2="30.8047" gradientUnits="userSpaceOnUse">
<stop stop-color="#FFD542"/>
<stop offset="1" stop-color="#FFCC1B"/>
</linearGradient>
</defs>
</svg>
