<svg width="30" height="30" viewBox="0 0 30 30" fill="none" xmlns="http://www.w3.org/2000/svg">
<circle cx="15" cy="15" r="15" fill="url(#paint0_linear_326_1257)"/>
<path d="M21.6316 21.2632H20.5263V11.3158C20.5318 11.2352 20.5101 11.1551 20.4647 11.0883C20.4192 11.0215 20.3527 10.9719 20.2758 10.9474L17.5789 9.82V21.2632H16.8421V8.36842C16.8421 8.27071 16.8033 8.177 16.7342 8.10791C16.6651 8.03882 16.5714 8 16.4737 8H9.84211C9.74439 8 9.65068 8.03882 9.58159 8.10791C9.5125 8.177 9.47368 8.27071 9.47368 8.36842V21.2632H8.36842C8.27071 21.2632 8.177 21.302 8.10791 21.3711C8.03882 21.4402 8 21.5339 8 21.6316C8 21.7293 8.03882 21.823 8.10791 21.8921C8.177 21.9612 8.27071 22 8.36842 22H21.6316C21.7293 22 21.823 21.9612 21.8921 21.8921C21.9612 21.823 22 21.7293 22 21.6316C22 21.5339 21.9612 21.4402 21.8921 21.3711C21.823 21.302 21.7293 21.2632 21.6316 21.2632ZM18.6842 12.4211H19.4211C19.5188 12.4211 19.6125 12.4599 19.6816 12.529C19.7507 12.5981 19.7895 12.6918 19.7895 12.7895C19.7876 12.8866 19.7482 12.9792 19.6795 13.0479C19.6108 13.1166 19.5182 13.156 19.4211 13.1579H18.6842C18.5871 13.156 18.4945 13.1166 18.4258 13.0479C18.3571 12.9792 18.3177 12.8866 18.3158 12.7895C18.3158 12.6918 18.3546 12.5981 18.4237 12.529C18.4928 12.4599 18.5865 12.4211 18.6842 12.4211ZM18.6842 14.6316H19.4211C19.5188 14.6316 19.6125 14.6704 19.6816 14.7395C19.7507 14.8086 19.7895 14.9023 19.7895 15C19.7895 15.0977 19.7507 15.1914 19.6816 15.2605C19.6125 15.3296 19.5188 15.3684 19.4211 15.3684H18.6842C18.5865 15.3684 18.4928 15.3296 18.4237 15.2605C18.3546 15.1914 18.3158 15.0977 18.3158 15C18.3158 14.9023 18.3546 14.8086 18.4237 14.7395C18.4928 14.6704 18.5865 14.6316 18.6842 14.6316ZM18.6842 16.8421H19.4211C19.5182 16.844 19.6108 16.8834 19.6795 16.9521C19.7482 17.0208 19.7876 17.1134 19.7895 17.2105C19.7895 17.3082 19.7507 17.4019 19.6816 17.471C19.6125 17.5401 19.5188 17.5789 19.4211 17.5789H18.6842C18.5865 17.5789 18.4928 17.5401 18.4237 17.471C18.3546 17.4019 18.3158 17.3082 18.3158 17.2105C18.3177 17.1134 18.3571 17.0208 18.4258 16.9521C18.4945 16.8834 18.5871 16.844 18.6842 16.8421ZM18.6842 19.0526H19.4211C19.5188 19.0526 19.6125 19.0914 19.6816 19.1605C19.7507 19.2296 19.7895 19.3233 19.7895 19.4211C19.7895 19.5188 19.7507 19.6125 19.6816 19.6816C19.6125 19.7507 19.5188 19.7895 19.4211 19.7895H18.6842C18.5865 19.7895 18.4928 19.7507 18.4237 19.6816C18.3546 19.6125 18.3158 19.5188 18.3158 19.4211C18.3158 19.3233 18.3546 19.2296 18.4237 19.1605C18.4928 19.0914 18.5865 19.0526 18.6842 19.0526ZM13.8947 10.2105H14.6316C14.7293 10.2105 14.823 10.2493 14.8921 10.3184C14.9612 10.3875 15 10.4812 15 10.5789C15 10.6767 14.9612 10.7704 14.8921 10.8395C14.823 10.9086 14.7293 10.9474 14.6316 10.9474H13.8947C13.797 10.9474 13.7033 10.9086 13.6342 10.8395C13.5651 10.7704 13.5263 10.6767 13.5263 10.5789C13.5263 10.4812 13.5651 10.3875 13.6342 10.3184C13.7033 10.2493 13.797 10.2105 13.8947 10.2105ZM13.8947 12.4211H14.6316C14.7293 12.4211 14.823 12.4599 14.8921 12.529C14.9612 12.5981 15 12.6918 15 12.7895C15 12.8872 14.9612 12.9809 14.8921 13.05C14.823 13.1191 14.7293 13.1579 14.6316 13.1579H13.8947C13.797 13.1579 13.7033 13.1191 13.6342 13.05C13.5651 12.9809 13.5263 12.8872 13.5263 12.7895C13.5263 12.6918 13.5651 12.5981 13.6342 12.529C13.7033 12.4599 13.797 12.4211 13.8947 12.4211ZM13.8947 14.6316H14.6316C14.7293 14.6316 14.823 14.6704 14.8921 14.7395C14.9612 14.8086 15 14.9023 15 15C15 15.0977 14.9612 15.1914 14.8921 15.2605C14.823 15.3296 14.7293 15.3684 14.6316 15.3684H13.8947C13.797 15.3684 13.7033 15.3296 13.6342 15.2605C13.5651 15.1914 13.5263 15.0977 13.5263 15C13.5263 14.9023 13.5651 14.8086 13.6342 14.7395C13.7033 14.6704 13.797 14.6316 13.8947 14.6316ZM13.8947 16.8421H14.6316C14.7293 16.8421 14.823 16.8809 14.8921 16.95C14.9612 17.0191 15 17.1128 15 17.2105C15 17.3082 14.9612 17.4019 14.8921 17.471C14.823 17.5401 14.7293 17.5789 14.6316 17.5789H13.8947C13.797 17.5789 13.7033 17.5401 13.6342 17.471C13.5651 17.4019 13.5263 17.3082 13.5263 17.2105C13.5263 17.1128 13.5651 17.0191 13.6342 16.95C13.7033 16.8809 13.797 16.8421 13.8947 16.8421ZM11.64 10.2105H12.4211C12.5188 10.2105 12.6125 10.2493 12.6816 10.3184C12.7507 10.3875 12.7895 10.4812 12.7895 10.5789C12.7895 10.6767 12.7507 10.7704 12.6816 10.8395C12.6125 10.9086 12.5188 10.9474 12.4211 10.9474H11.6842C11.5865 10.9474 11.4928 10.9086 11.4237 10.8395C11.3546 10.7704 11.3158 10.6767 11.3158 10.5789C11.3158 10.4812 11.3546 10.3875 11.4237 10.3184C11.4928 10.2493 11.5865 10.2105 11.6842 10.2105H11.64ZM11.64 12.4211H12.4211C12.5188 12.4211 12.6125 12.4599 12.6816 12.529C12.7507 12.5981 12.7895 12.6918 12.7895 12.7895C12.7895 12.8872 12.7507 12.9809 12.6816 13.05C12.6125 13.1191 12.5188 13.1579 12.4211 13.1579H11.6842C11.5865 13.1579 11.4928 13.1191 11.4237 13.05C11.3546 12.9809 11.3158 12.8872 11.3158 12.7895C11.3158 12.6918 11.3546 12.5981 11.4237 12.529C11.4928 12.4599 11.5865 12.4211 11.6842 12.4211H11.64ZM11.64 14.6316H12.4211C12.5188 14.6316 12.6125 14.6704 12.6816 14.7395C12.7507 14.8086 12.7895 14.9023 12.7895 15C12.7895 15.0977 12.7507 15.1914 12.6816 15.2605C12.6125 15.3296 12.5188 15.3684 12.4211 15.3684H11.6842C11.5865 15.3684 11.4928 15.3296 11.4237 15.2605C11.3546 15.1914 11.3158 15.0977 11.3158 15C11.3158 14.9023 11.3546 14.8086 11.4237 14.7395C11.4928 14.6704 11.5865 14.6316 11.6842 14.6316H11.64ZM11.64 16.8421H12.4211C12.5188 16.8421 12.6125 16.8809 12.6816 16.95C12.7507 17.0191 12.7895 17.1128 12.7895 17.2105C12.7895 17.3082 12.7507 17.4019 12.6816 17.471C12.6125 17.5401 12.5188 17.5789 12.4211 17.5789H11.6842C11.5865 17.5789 11.4928 17.5401 11.4237 17.471C11.3546 17.4019 11.3158 17.3082 11.3158 17.2105C11.3158 17.1128 11.3546 17.0191 11.4237 16.95C11.4928 16.8809 11.5865 16.8421 11.6842 16.8421H11.64ZM13.5263 21.2632V19.7895H12.7895V21.2632H12.0526V19.3989C12.0583 19.3051 12.0996 19.217 12.1681 19.1526C12.2365 19.0882 12.3271 19.0525 12.4211 19.0526H13.8947C13.9924 19.0526 14.0862 19.0914 14.1553 19.1605C14.2243 19.2296 14.2632 19.3233 14.2632 19.4211V21.2632H13.5263Z" fill="#181F30"/>
<defs>
<linearGradient id="paint0_linear_326_1257" x1="15" y1="0" x2="15" y2="30.7944" gradientUnits="userSpaceOnUse">
<stop stop-color="#FFD542"/>
<stop offset="1" stop-color="#FFCC1B"/>
</linearGradient>
</defs>
</svg>
