<svg id="star" xmlns="http://www.w3.org/2000/svg" width="50" height="50" viewBox="0 0 50 50">
  <g id="Vector" transform="translate(6.971 7.237)" fill="none" stroke-linecap="round" stroke-linejoin="round">
    <path d="M21.152,2.564l3.174,6.3a3.917,3.917,0,0,0,2.561,1.879l5.753.948c3.679.608,4.545,3.257,1.894,5.87L30.061,22a3.865,3.865,0,0,0-.938,3.239l1.28,5.494c1.01,4.349-1.317,6.031-5.194,3.758l-5.392-3.168a3.926,3.926,0,0,0-3.571,0l-5.392,3.168c-3.859,2.273-6.2.573-5.194-3.758l1.28-5.494A3.865,3.865,0,0,0,6,22L1.531,17.56C-1.1,14.947-.254,12.3,3.425,11.69l5.753-.948A3.925,3.925,0,0,0,11.72,8.863l3.174-6.3C16.626-.855,19.439-.855,21.152,2.564Z" stroke="none"/>
    <path d="M 18.03018379211426 1.499996185302734 C 17.46543502807617 1.499996185302734 16.77663421630859 2.167224884033203 16.2340145111084 3.238494873046875 L 13.06195449829102 9.533763885498047 C 12.42100524902344 10.82496643066406 10.85981559753418 11.97945785522461 9.426803588867188 12.22092437744141 C 9.425064086914062 12.22121429443359 9.423315048217773 12.22150421142578 9.421564102172852 12.22179412841797 L 3.669353485107422 13.17013549804688 C 2.523475646972656 13.35964393615723 1.706813812255859 13.80593490600586 1.5380859375 14.33483505249023 C 1.370834350585938 14.85909461975098 1.772964477539062 15.68690490722656 2.587543487548828 16.49521446228027 L 7.060064315795898 20.93329620361328 C 8.173664093017578 22.03831481933594 8.751613616943359 24.03064346313477 8.404443740844727 25.56762504577637 C 8.403694152832031 25.57095336914062 8.402923583984375 25.57428359985352 8.402154922485352 25.57760620117188 L 7.121664047241211 31.07171440124512 C 6.777374267578125 32.54810333251953 6.940143585205078 33.43380355834961 7.207284927368164 33.77040481567383 C 7.261373519897461 33.83855438232422 7.388034820556641 33.99816513061523 7.828514099121094 33.99816513061523 C 8.166093826293945 33.99816513061523 8.90925407409668 33.89402389526367 10.09501457214355 33.19573593139648 L 15.48729515075684 30.02823448181152 C 15.49053382873535 30.02633476257324 15.49378395080566 30.02444458007812 15.49703407287598 30.02256393432617 C 16.20120429992676 29.61601448059082 17.10403442382812 29.39211463928223 18.03919410705566 29.39211463928223 C 18.97849464416504 29.39211463928223 19.88018417358398 29.61815452575684 20.57757568359375 30.02823448181152 L 25.96864318847656 33.19502639770508 C 27.1658935546875 33.89680480957031 27.91265487670898 34.00158309936523 28.25122451782227 34.00158309936523 C 28.68521499633789 34.00158309936523 28.80854415893555 33.8463249206543 28.86121368408203 33.78003311157227 C 29.12716484069824 33.44523620605469 29.28829383850098 32.55758666992188 28.94316482543945 31.07153511047363 L 27.6627140045166 25.57761383056641 C 27.66194534301758 25.57428359985352 27.66117477416992 25.57094573974609 27.66042327880859 25.5676155090332 C 27.31326293945312 24.03062438964844 27.8912239074707 22.03830337524414 29.00480461120605 20.93329620361328 L 33.47732543945312 16.49521446228027 C 33.47853469848633 16.49401473999023 33.47974395751953 16.4928150177002 33.48096466064453 16.49161529541016 C 34.29706573486328 15.68730545043945 34.70105361938477 14.86292457580566 34.53527450561523 14.34019470214844 C 34.36677551269531 13.80888557434082 33.5468635559082 13.36054420471191 32.39627456665039 13.17025566101074 L 26.64255523681641 12.2216739654541 C 25.19778251647949 11.98273086547852 23.62637329101562 10.82722663879395 22.98425674438477 9.532539367675781 L 19.81141471862793 3.235683441162109 C 19.2747745513916 2.165073394775391 18.59224510192871 1.499996185302734 18.03018379211426 1.499996185302734 M 18.03017997741699 -3.814697265625e-06 C 19.16409111022949 -3.814697265625e-06 20.29574966430664 0.8545036315917969 21.15238571166992 2.563526153564453 L 24.32642364501953 8.86274528503418 C 24.75925445556641 9.7396240234375 25.91345405578613 10.58071517944336 26.88730430603027 10.74177551269531 L 32.64027404785156 11.69023513793945 C 36.31927490234375 12.29868507385254 37.1849250793457 14.94721412658691 34.53387451171875 17.55996513366699 L 30.06135368347168 21.99804496765137 C 29.30391502380371 22.74965476989746 28.88912391662598 24.19919586181641 29.12356376647949 25.23713493347168 L 30.40401458740234 30.73105430603027 C 31.4139347076416 35.07966613769531 29.08750534057617 36.76184463500977 25.21011352539062 34.48910522460938 L 19.81783485412598 31.32160568237305 C 18.84398460388184 30.74895477294922 17.23892402648926 30.74895477294922 16.24703407287598 31.32160568237305 L 10.8547534942627 34.48910522460938 C 6.995399475097656 36.76184844970703 4.650941848754883 35.06176376342773 5.660863876342773 30.73105430603027 L 6.941305160522461 25.23713493347168 C 7.175754547119141 24.19919586181641 6.760953903198242 22.74965476989746 6.003515243530273 21.99804496765137 L 1.530994415283203 17.55996513366699 C -1.102024078369141 14.94721412658691 -0.2544059753417969 12.29868507385254 3.424602508544922 11.69023513793945 L 9.17756462097168 10.74177551269531 C 10.13338470458984 10.58071517944336 11.28758430480957 9.7396240234375 11.72040367126465 8.86274528503418 L 14.89445495605469 2.563526153564453 C 15.76010513305664 0.8545036315917969 16.89626884460449 -3.814697265625e-06 18.03017997741699 -3.814697265625e-06 Z" stroke="none" fill="#2e1e4e"/>
  </g>
  <g id="Vector-2" data-name="Vector" fill="none" opacity="0">
    <path d="M0,0H50V50H0Z" stroke="none"/>
    <path d="M 1 1 L 1 49 L 49 49 L 49 1 L 1 1 M 0 0 L 50 0 L 50 50 L 0 50 L 0 0 Z" stroke="none" fill="#2e1e4e"/>
  </g>
</svg>
