<svg width="28" height="28" viewBox="0 0 28 28" fill="none" xmlns="http://www.w3.org/2000/svg">
<circle cx="14" cy="14" r="14" fill="url(#paint0_linear_340_1876)"/>
<path d="M11.941 19.8333C12.0833 19.8337 12.2238 19.8062 12.3524 19.7529C12.4809 19.6995 12.5942 19.6216 12.6838 19.525L17.2834 14.5254C17.4234 14.3763 17.5 14.1893 17.5 13.9963C17.5 13.8033 17.4234 13.6163 17.2834 13.4672L12.5219 8.46767C12.3603 8.29751 12.128 8.1905 11.8762 8.17018C11.6244 8.14987 11.3737 8.21791 11.1792 8.35935C10.9847 8.50078 10.8624 8.70402 10.8392 8.92436C10.816 9.14469 10.8937 9.36407 11.0554 9.53424L15.3121 14.0005L11.1982 18.4667C11.0818 18.589 11.0078 18.738 10.9851 18.8959C10.9623 19.0539 10.9918 19.2142 11.0699 19.358C11.148 19.5017 11.2716 19.6229 11.426 19.7071C11.5804 19.7914 11.7591 19.8351 11.941 19.8333Z" fill="#181F30"/>
<defs>
<linearGradient id="paint0_linear_340_1876" x1="14" y1="0" x2="14" y2="28.7414" gradientUnits="userSpaceOnUse">
<stop stop-color="#FFD542"/>
<stop offset="1" stop-color="#FFCC1B"/>
</linearGradient>
</defs>
</svg>
