<svg width="11" height="18" viewBox="0 0 11 18" fill="none" xmlns="http://www.w3.org/2000/svg">
<path d="M8.57673 17.9999C8.35723 18.0006 8.14035 17.9582 7.94203 17.8759C7.74371 17.7935 7.56899 17.6734 7.43071 17.5242L0.334237 9.81069C0.118137 9.58065 0 9.29211 0 8.99433C0 8.69656 0.118137 8.40802 0.334237 8.17798L7.68048 0.464424C7.92987 0.201884 8.28824 0.0367824 8.67675 0.00543999C9.06525 -0.0259024 9.45208 0.0790816 9.75212 0.297296C10.0522 0.515511 10.2409 0.829082 10.2767 1.16903C10.3125 1.50897 10.1925 1.84744 9.94313 2.10998L3.37558 9.00076L9.72274 15.8915C9.9024 16.0802 10.0165 16.31 10.0516 16.5537C10.0867 16.7974 10.0413 17.0448 9.92072 17.2666C9.80015 17.4884 9.6095 17.6753 9.37132 17.8053C9.13314 17.9352 8.8574 18.0028 8.57673 17.9999Z" fill="white"/>
</svg>
