<svg width="24" height="19" viewBox="0 0 24 19" fill="none" xmlns="http://www.w3.org/2000/svg">
<rect width="24" height="18.4615" rx="4" fill="url(#paint0_linear_85_982)"/>
<path d="M11.8335 11.6999C12.8644 11.6999 13.7001 10.8642 13.7001 9.83322C13.7001 8.80229 12.8644 7.96655 11.8335 7.96655C10.8025 7.96655 9.9668 8.80229 9.9668 9.83322C9.9668 10.8642 10.8025 11.6999 11.8335 11.6999Z" fill="#181F30"/>
<path d="M10.0833 4L9.01583 5.16667H7.16667C6.52208 5.16667 6 5.68875 6 6.33333V13.3333C6 13.9779 6.52208 14.5 7.16667 14.5H16.5C17.1446 14.5 17.6667 13.9779 17.6667 13.3333V6.33333C17.6667 5.68875 17.1446 5.16667 16.5 5.16667H14.6508L13.5833 4H10.0833ZM11.8333 12.75C10.2233 12.75 8.91667 11.4433 8.91667 9.83333C8.91667 8.22333 10.2233 6.91667 11.8333 6.91667C13.4433 6.91667 14.75 8.22333 14.75 9.83333C14.75 11.4433 13.4433 12.75 11.8333 12.75Z" fill="#181F30"/>
<defs>
<linearGradient id="paint0_linear_85_982" x1="12" y1="0" x2="12" y2="18.9504" gradientUnits="userSpaceOnUse">
<stop stop-color="#FFD542"/>
<stop offset="1" stop-color="#FFCC1B"/>
</linearGradient>
</defs>
</svg>
