<svg width="20" height="13" viewBox="0 0 20 13" fill="none" xmlns="http://www.w3.org/2000/svg">
<path d="M6.10976 6.34146L0 10.3195V2.36341L6.10976 6.34146ZM13.8902 6.34146L20 10.3195V2.36341L13.8902 6.34146ZM12.9976 6.92439L10.2659 8.70244C10.1854 8.75366 10.0927 8.78049 10 8.78049C9.90732 8.78049 9.81463 8.75366 9.73415 8.70244L7.00244 6.92439L0.404878 11.2195L0.0219513 11.4683C0.141463 12.1561 0.741463 12.6829 1.46341 12.6829H18.5366C19.2585 12.6829 19.8585 12.1585 19.9781 11.4683L19.5927 11.2195L12.9976 6.92439ZM10 7.70976L19.5927 1.46341L19.9781 1.21463C19.8585 0.52439 19.2585 0 18.5366 0H1.46341C0.741463 0 0.141463 0.526829 0.0219513 1.21463L0.404878 1.46341L10 7.70976Z" fill="url(#paint0_linear_39_89)"/>
<defs>
<linearGradient id="paint0_linear_39_89" x1="10" y1="0" x2="10" y2="13.0188" gradientUnits="userSpaceOnUse">
<stop stop-color="#FFD542"/>
<stop offset="1" stop-color="#FFCC1B"/>
</linearGradient>
</defs>
</svg>
