<svg width="26" height="26" viewBox="0 0 26 26" fill="none" xmlns="http://www.w3.org/2000/svg">
<path d="M4.01556 14.8778C4.90578 10.603 8.62718 7.56555 12.8133 7.56555C16.9981 7.56555 20.7195 10.603 21.611 14.8778C21.6463 15.0475 21.7476 15.1961 21.8925 15.2911C22.0374 15.3861 22.2141 15.4196 22.3837 15.3843C22.5534 15.349 22.702 15.2477 22.797 15.1028C22.892 14.9579 22.9255 14.7812 22.8902 14.6116C21.876 9.74932 17.6337 6.26025 12.8133 6.26025C7.99281 6.26025 3.75059 9.74932 2.73637 14.6116C2.70106 14.7812 2.73458 14.9579 2.82956 15.1028C2.92454 15.2477 3.07319 15.349 3.24283 15.3843C3.41246 15.4196 3.58917 15.3861 3.73408 15.2911C3.879 15.1961 3.98025 15.0475 4.01556 14.8778ZM12.8002 10.1762C14.0119 10.1762 15.1739 10.6575 16.0307 11.5142C16.8874 12.371 17.3688 13.533 17.3688 14.7447C17.3688 15.9563 16.8874 17.1184 16.0307 17.9751C15.1739 18.8319 14.0119 19.3132 12.8002 19.3132C11.5886 19.3132 10.4265 18.8319 9.56977 17.9751C8.71301 17.1184 8.23168 15.9563 8.23168 14.7447C8.23168 13.533 8.71301 12.371 9.56977 11.5142C10.4265 10.6575 11.5886 10.1762 12.8002 10.1762Z" fill="#181F30"/>
</svg>
