<svg width="17" height="20" viewBox="0 0 17 20" fill="none" xmlns="http://www.w3.org/2000/svg">
<path d="M8.36032 9.03461C10.8552 9.03461 12.8776 7.01214 12.8776 4.5173C12.8776 2.02247 10.8552 0 8.36032 0C5.86548 0 3.84302 2.02247 3.84302 4.5173C3.84302 7.01214 5.86548 9.03461 8.36032 9.03461Z" fill="url(#paint0_linear_41_14)"/>
<path d="M16.7204 16.4733V18.0397C16.7204 19.1226 15.8429 20.0001 14.76 20.0001H1.96035C0.877478 20.0001 0 19.1226 0 18.0397V16.4733C0 13.5211 2.41544 11.1057 5.36761 11.1057H11.3527C14.3049 11.1057 16.7204 13.5211 16.7204 16.4733Z" fill="url(#paint1_linear_41_14)"/>
<defs>
<linearGradient id="paint0_linear_41_14" x1="8.36032" y1="0" x2="8.36032" y2="9.27384" gradientUnits="userSpaceOnUse">
<stop stop-color="#FFD542"/>
<stop offset="1" stop-color="#FFCC1B"/>
</linearGradient>
<linearGradient id="paint1_linear_41_14" x1="8.36018" y1="11.1057" x2="8.36018" y2="20.2356" gradientUnits="userSpaceOnUse">
<stop stop-color="#FFD542"/>
<stop offset="1" stop-color="#FFCC1B"/>
</linearGradient>
</defs>
</svg>
