<svg width="12" height="12" viewBox="0 0 12 12" fill="none" xmlns="http://www.w3.org/2000/svg">
<path d="M6 0C2.6864 0 0 2.6864 0 6C0 9.3136 2.6864 12 6 12C9.3136 12 12 9.3136 12 6C12 2.6864 9.3136 0 6 0ZM8.78 3.7856L6.5504 6.0152L8.5232 8.2144C8.59606 8.28984 8.63638 8.39088 8.63547 8.49576C8.63456 8.60064 8.59249 8.70096 8.51833 8.77513C8.44416 8.84929 8.34384 8.89136 8.23896 8.89227C8.13408 8.89318 8.03304 8.85286 7.9576 8.78L5.9848 6.5808L3.7856 8.78C3.71016 8.85286 3.60912 8.89318 3.50424 8.89227C3.39936 8.89136 3.29904 8.84929 3.22487 8.77513C3.15071 8.70096 3.10864 8.60064 3.10773 8.49576C3.10682 8.39088 3.14714 8.28984 3.22 8.2144L5.4496 5.9848L3.4768 3.7856C3.40394 3.71016 3.36362 3.60912 3.36453 3.50424C3.36544 3.39936 3.40751 3.29904 3.48167 3.22487C3.55584 3.15071 3.65616 3.10864 3.76104 3.10773C3.86592 3.10682 3.96696 3.14714 4.0424 3.22L6.0152 5.4192L8.2144 3.22C8.28984 3.14714 8.39088 3.10682 8.49576 3.10773C8.60064 3.10864 8.70096 3.15071 8.77513 3.22487C8.84929 3.29904 8.89136 3.39936 8.89227 3.50424C8.89318 3.60912 8.85286 3.71016 8.78 3.7856Z" fill="white" fill-opacity="0.6"/>
</svg>
