<svg width="44" height="44" viewBox="0 0 44 44" fill="none" xmlns="http://www.w3.org/2000/svg">
<circle cx="22" cy="22" r="22" fill="#181F30"/>
<path d="M28.9453 15.2272C28.9453 15.3945 28.8952 15.5582 28.8013 15.6974C28.7074 15.8365 28.5739 15.945 28.4178 16.0091C28.2616 16.0731 28.0898 16.0899 27.924 16.0572C27.7583 16.0246 27.606 15.944 27.4865 15.8256C27.367 15.7072 27.2856 15.5564 27.2526 15.3923C27.2197 15.2281 27.2366 15.0579 27.3013 14.9033C27.3659 14.7486 27.4755 14.6165 27.616 14.5235C27.7565 14.4305 27.9217 14.3808 28.0908 14.3808C28.3174 14.3808 28.5347 14.47 28.695 14.6287C28.8553 14.7874 28.9453 15.0027 28.9453 15.2272ZM31.5602 19.8735L28.0908 26.8557L24.6213 19.8735C22.7499 16.302 22.7072 14.2285 24.4675 12.4851C25.4289 11.5341 26.732 11 28.0908 11C29.4495 11 30.7526 11.5341 31.714 12.4851C33.4743 14.2285 33.4316 16.302 31.5602 19.8735ZM30.6031 15.7265C30.7116 15.192 30.6435 14.6372 30.4089 14.1441C30.1743 13.6509 29.7857 13.2456 29.3005 12.9882C28.8153 12.7307 28.2594 12.6348 27.7149 12.7145C27.1704 12.7942 26.6662 13.0454 26.277 13.4308C25.8878 13.8163 25.6342 14.3156 25.5537 14.8549C25.4732 15.3942 25.5701 15.9448 25.8301 16.4253C26.09 16.9058 26.4992 17.2907 26.9972 17.523C27.4951 17.7553 28.0553 17.8228 28.5949 17.7154C29.0903 17.6167 29.5452 17.3753 29.9025 17.0215C30.2598 16.6676 30.5035 16.2171 30.6031 15.7265ZM27.2362 29.6147V31.3073H23.8181V33H28.9453V29.6147H27.2362ZM15.2727 31.3073V33H22.109V31.3073H15.2727ZM12.7091 27.922H11V33H13.5636V31.3073H12.7091V27.922ZM12.7091 26.2294V19.4588H11V26.2294H12.7091ZM12.7091 14.3808H15.2727V12.6882H11V17.7661H12.7091V14.3808ZM18.3405 15.9296L19.5454 14.7278L20.7503 15.9296L21.9637 14.7278L20.7503 13.5345L21.9637 12.3412L20.7503 11.1394L19.5454 12.3412L18.3405 11.1394L17.127 12.3412L18.3405 13.5345L17.127 14.7278L18.3405 15.9296Z" fill="url(#paint0_linear_76_738)"/>
<defs>
<linearGradient id="paint0_linear_76_738" x1="22" y1="11" x2="22" y2="33.5826" gradientUnits="userSpaceOnUse">
<stop stop-color="#FFD542"/>
<stop offset="1" stop-color="#FFCC1B"/>
</linearGradient>
</defs>
</svg>
